<svg xmlns="http://www.w3.org/2000/svg" viewBox="-2.86 -6.36 31.72 31.72" shape-rendering="crispEdges">
<rect x="-2.86" y="-6.36" width="31.72" height="31.72" rx="8.25" ry="8.25" fill="#f1f4e2" shape-rendering="geometricPrecision"/>
<rect x="20" y="0" width="2" height="1" fill="#90d018"/>
<rect x="20" y="1" width="1" height="1" fill="#90d018"/>
<rect x="24" y="1" width="2" height="1" fill="#90d018"/>
<rect x="16" y="2" width="1" height="1" fill="#f88848"/>
<rect x="19" y="2" width="1" height="1" fill="#90d018"/>
<rect x="22" y="2" width="1" height="1" fill="#ffffff"/>
<rect x="23" y="2" width="2" height="1" fill="#90d018"/>
<rect x="6" y="3" width="2" height="1" fill="#ffffff"/>
<rect x="16" y="3" width="1" height="1" fill="#f88848"/>
<rect x="18" y="3" width="1" height="1" fill="#90d018"/>
<rect x="21" y="3" width="2" height="1" fill="#90d018"/>
<rect x="3" y="4" width="3" height="1" fill="#90d018"/>
<rect x="6" y="4" width="1" height="1" fill="#288040"/>
<rect x="7" y="4" width="2" height="1" fill="#104030"/>
<rect x="9" y="4" width="2" height="1" fill="#288040"/>
<rect x="11" y="4" width="1" height="1" fill="#ffffff"/>
<rect x="17" y="4" width="1" height="1" fill="#90d018"/>
<rect x="20" y="4" width="2" height="1" fill="#90d018"/>
<rect x="4" y="5" width="1" height="1" fill="#90d018"/>
<rect x="5" y="5" width="3" height="1" fill="#104030"/>
<rect x="8" y="5" width="2" height="1" fill="#ffffff"/>
<rect x="10" y="5" width="2" height="1" fill="#288040"/>
<rect x="12" y="5" width="1" height="1" fill="#90d018"/>
<rect x="19" y="5" width="1" height="1" fill="#90d018"/>
<rect x="23" y="5" width="3" height="1" fill="#90d018"/>
<rect x="3" y="6" width="1" height="1" fill="#288040"/>
<rect x="4" y="6" width="2" height="1" fill="#104030"/>
<rect x="6" y="6" width="3" height="1" fill="#ffffff"/>
<rect x="9" y="6" width="1" height="1" fill="#288040"/>
<rect x="10" y="6" width="2" height="1" fill="#ffffff"/>
<rect x="12" y="6" width="2" height="1" fill="#288040"/>
<rect x="14" y="6" width="1" height="1" fill="#ffffff"/>
<rect x="17" y="6" width="1" height="1" fill="#90d018"/>
<rect x="21" y="6" width="1" height="1" fill="#90d018"/>
<rect x="22" y="6" width="1" height="1" fill="#ffffff"/>
<rect x="2" y="7" width="1" height="1" fill="#288040"/>
<rect x="3" y="7" width="2" height="1" fill="#104030"/>
<rect x="5" y="7" width="4" height="1" fill="#ffffff"/>
<rect x="9" y="7" width="1" height="1" fill="#104030"/>
<rect x="10" y="7" width="2" height="1" fill="#ffffff"/>
<rect x="12" y="7" width="1" height="1" fill="#90d018"/>
<rect x="13" y="7" width="1" height="1" fill="#288040"/>
<rect x="14" y="7" width="1" height="1" fill="#c66c36"/>
<rect x="15" y="7" width="1" height="1" fill="#104030"/>
<rect x="18" y="7" width="1" height="1" fill="#90d018"/>
<rect x="1" y="8" width="2" height="1" fill="#288040"/>
<rect x="3" y="8" width="1" height="1" fill="#104030"/>
<rect x="4" y="8" width="1" height="1" fill="#288040"/>
<rect x="5" y="8" width="2" height="1" fill="#ffffff"/>
<rect x="7" y="8" width="1" height="1" fill="#288040"/>
<rect x="8" y="8" width="2" height="1" fill="#104030"/>
<rect x="10" y="8" width="2" height="1" fill="#ffffff"/>
<rect x="12" y="8" width="1" height="1" fill="#90d018"/>
<rect x="13" y="8" width="1" height="1" fill="#288040"/>
<rect x="14" y="8" width="1" height="1" fill="#c66c36"/>
<rect x="15" y="8" width="1" height="1" fill="#f88848"/>
<rect x="16" y="8" width="1" height="1" fill="#104030"/>
<rect x="18" y="8" width="1" height="1" fill="#ffffff"/>
<rect x="19" y="8" width="3" height="1" fill="#f88848"/>
<rect x="22" y="8" width="1" height="1" fill="#ffffff"/>
<rect x="4" y="9" width="1" height="1" fill="#90d018"/>
<rect x="5" y="9" width="8" height="1" fill="#ffffff"/>
<rect x="13" y="9" width="1" height="1" fill="#90d018"/>
<rect x="14" y="9" width="1" height="1" fill="#288040"/>
<rect x="15" y="9" width="2" height="1" fill="#f88848"/>
<rect x="17" y="9" width="1" height="1" fill="#104030"/>
<rect x="2" y="10" width="2" height="1" fill="#104030"/>
<rect x="4" y="10" width="1" height="1" fill="#ffffff"/>
<rect x="5" y="10" width="5" height="1" fill="#90d018"/>
<rect x="10" y="10" width="3" height="1" fill="#ffffff"/>
<rect x="13" y="10" width="2" height="1" fill="#288040"/>
<rect x="15" y="10" width="1" height="1" fill="#f88848"/>
<rect x="16" y="10" width="1" height="1" fill="#104030"/>
<rect x="17" y="10" width="1" height="1" fill="#f88848"/>
<rect x="2" y="11" width="3" height="1" fill="#104030"/>
<rect x="5" y="11" width="7" height="1" fill="#90d018"/>
<rect x="12" y="11" width="1" height="1" fill="#c66c36"/>
<rect x="13" y="11" width="1" height="1" fill="#288040"/>
<rect x="14" y="11" width="3" height="1" fill="#104030"/>
<rect x="17" y="11" width="1" height="1" fill="#f88848"/>
<rect x="18" y="11" width="1" height="1" fill="#104030"/>
<rect x="2" y="12" width="3" height="1" fill="#104030"/>
<rect x="5" y="12" width="6" height="1" fill="#90d018"/>
<rect x="11" y="12" width="4" height="1" fill="#288040"/>
<rect x="15" y="12" width="1" height="1" fill="#f88848"/>
<rect x="16" y="12" width="1" height="1" fill="#104030"/>
<rect x="17" y="12" width="1" height="1" fill="#c66c36"/>
<rect x="18" y="12" width="1" height="1" fill="#104030"/>
<rect x="2" y="13" width="4" height="1" fill="#104030"/>
<rect x="6" y="13" width="4" height="1" fill="#90d018"/>
<rect x="10" y="13" width="2" height="1" fill="#104030"/>
<rect x="12" y="13" width="2" height="1" fill="#288040"/>
<rect x="14" y="13" width="1" height="1" fill="#c66c36"/>
<rect x="15" y="13" width="3" height="1" fill="#104030"/>
<rect x="1" y="14" width="13" height="1" fill="#104030"/>
<rect x="14" y="14" width="1" height="1" fill="#90d018"/>
<rect x="1" y="15" width="3" height="1" fill="#104030"/>
<rect x="4" y="15" width="2" height="1" fill="#288040"/>
<rect x="6" y="15" width="5" height="1" fill="#104030"/>
<rect x="11" y="15" width="1" height="1" fill="#288040"/>
<rect x="1" y="16" width="2" height="1" fill="#104030"/>
<rect x="3" y="16" width="3" height="1" fill="#288040"/>
<rect x="6" y="16" width="4" height="1" fill="#104030"/>
<rect x="10" y="16" width="3" height="1" fill="#90d018"/>
<rect x="1" y="17" width="2" height="1" fill="#104030"/>
<rect x="3" y="17" width="4" height="1" fill="#288040"/>
<rect x="7" y="17" width="2" height="1" fill="#104030"/>
<rect x="9" y="17" width="4" height="1" fill="#90d018"/>
<rect x="0" y="18" width="2" height="1" fill="#104030"/>
<rect x="2" y="18" width="5" height="1" fill="#288040"/>
<rect x="7" y="18" width="2" height="1" fill="#104030"/>
<rect x="9" y="18" width="4" height="1" fill="#90d018"/>
<rect x="13" y="18" width="1" height="1" fill="#ffffff"/>
</svg>
